<svg width="259" height="75" fill="none" xmlns="http://www.w3.org/2000/svg"><g clip-path="url(#a)"><path d="M48.08 43.096v-17.75h-7.034v-8.434C41.046 7.586 33.42 0 24.045 0 14.669 0 7.034 7.586 7.034 16.912v8.433H0v49.227h48.08V57.99h-7.536v9.076H7.536V32.842h33.008v10.245h7.536v.009Zm-33.5-26.184c0-5.194 4.243-9.416 9.465-9.416 5.221 0 9.465 4.222 9.465 9.416v8.433H14.58v-8.433Z" fill="#F5333F"/><path d="M72.976 69.868c-.942.66-2.1.991-3.472.991-.897 0-1.704-.152-2.404-.446a4.564 4.564 0 0 1-1.768-1.294 5.688 5.688 0 0 1-1.076-1.99 8.241 8.241 0 0 1-.368-2.517c0-.92.125-1.776.368-2.543.242-.759.592-1.42 1.05-1.973a4.52 4.52 0 0 1 1.713-1.276c.682-.294 1.471-.446 2.35-.446.88 0 1.678.152 2.378.446.7.295 1.283.723 1.74 1.276.458.554.754 1.232.88 2.017h4.459c-.143-1.562-.628-2.927-1.444-4.114-.817-1.178-1.912-2.106-3.284-2.767-1.373-.66-2.943-.99-4.728-.99-1.786 0-3.194.294-4.441.875-1.257.58-2.288 1.356-3.123 2.32a9.55 9.55 0 0 0-1.839 3.24 11.467 11.467 0 0 0-.592 3.614v.589c0 1.106.197 2.258.583 3.436a9.913 9.913 0 0 0 1.813 3.275c.816 1 1.866 1.82 3.149 2.445 1.283.625 2.808.937 4.593.937 1.893 0 3.526-.357 4.908-1.07 1.381-.715 2.467-1.67 3.266-2.866a8.73 8.73 0 0 0 1.444-3.935H74.7c-.197 1.169-.772 2.08-1.714 2.74l-.009.026ZM99.38 57.455c-.879-.964-1.982-1.74-3.292-2.32-1.319-.58-2.835-.875-4.567-.875-1.731 0-3.275.294-4.575.874-1.31.58-2.405 1.357-3.293 2.32a9.689 9.689 0 0 0-2 3.24c-.44 1.196-.665 2.4-.665 3.615v.589c0 1.106.216 2.249.646 3.427a10.601 10.601 0 0 0 1.947 3.275c.861 1.008 1.956 1.83 3.284 2.463 1.328.624 2.88.937 4.656.937 1.777 0 3.338-.313 4.657-.937 1.328-.625 2.422-1.446 3.283-2.463.862-1.009 1.517-2.106 1.947-3.275.431-1.17.646-2.312.646-3.427v-.59c0-1.213-.224-2.418-.673-3.614a10.007 10.007 0 0 0-2-3.24Zm-2.224 9.593a6.069 6.069 0 0 1-1.203 1.99 5.611 5.611 0 0 1-1.902 1.348c-.744.321-1.588.482-2.53.482-.942 0-1.776-.16-2.512-.482a5.542 5.542 0 0 1-1.902-1.348 5.778 5.778 0 0 1-1.202-1.99 7.128 7.128 0 0 1-.404-2.418c0-.91.135-1.75.404-2.517a5.466 5.466 0 0 1 1.202-1.972 5.652 5.652 0 0 1 1.902-1.294c.736-.304 1.58-.455 2.512-.455.933 0 1.75.151 2.503.455.745.303 1.391.732 1.92 1.294.53.553.933 1.214 1.22 1.972.279.759.422 1.598.422 2.517 0 .857-.143 1.669-.421 2.418h-.01ZM117.862 66.647c0 .874-.161 1.633-.475 2.258a3.37 3.37 0 0 1-1.418 1.454c-.628.34-1.399.51-2.297.51-.897 0-1.659-.17-2.279-.51a3.537 3.537 0 0 1-1.435-1.463c-.332-.634-.502-1.383-.502-2.24V54.858h-4.433v11.637c0 1.74.332 3.24.996 4.516.664 1.276 1.642 2.258 2.934 2.954 1.292.696 2.862 1.044 4.71 1.044 1.849 0 3.446-.348 4.729-1.044a6.978 6.978 0 0 0 2.915-2.954c.664-1.276.996-2.775.996-4.516V54.858h-4.459v11.798l.018-.01ZM141.137 65.308c.655-.955.987-2.16.987-3.614v-.429c0-1.454-.323-2.668-.969-3.64-.646-.974-1.579-1.714-2.781-2.205-1.211-.49-2.629-.74-4.271-.74h-7.751v19.776h4.432v-6.292h3.212l4.324 6.291h5.132l-5.042-7.023c1.166-.473 2.081-1.178 2.727-2.124Zm-10.353-6.89h3.678c.646 0 1.202.134 1.678.393a2.83 2.83 0 0 1 1.103 1.098c.27.473.404 1.035.404 1.678 0 .606-.134 1.15-.404 1.624a2.83 2.83 0 0 1-1.103 1.097c-.467.26-1.023.393-1.678.393h-3.678V58.41v.009ZM158.355 69.868c-.942.66-2.099.991-3.472.991-.897 0-1.705-.152-2.404-.446a4.567 4.567 0 0 1-1.768-1.294 5.692 5.692 0 0 1-1.076-1.99c-.243-.759-.368-1.598-.368-2.517 0-.92.125-1.776.368-2.543a5.861 5.861 0 0 1 1.049-1.973 4.523 4.523 0 0 1 1.714-1.276c.682-.294 1.471-.446 2.351-.446.879 0 1.677.152 2.377.446a4.48 4.48 0 0 1 1.741 1.276c.457.554.753 1.232.879 2.017h4.459c-.144-1.562-.628-2.927-1.445-4.114-.816-1.178-1.911-2.106-3.283-2.767-1.373-.66-2.943-.99-4.728-.99-1.786 0-3.194.294-4.442.875-1.256.58-2.287 1.356-3.122 2.32a9.56 9.56 0 0 0-1.839 3.24 11.458 11.458 0 0 0-.592 3.614v.589c0 1.106.197 2.258.583 3.436a9.923 9.923 0 0 0 1.812 3.275c.817 1 1.867 1.82 3.15 2.445 1.283.625 2.808.937 4.593.937 1.893 0 3.526-.357 4.908-1.07 1.381-.715 2.467-1.67 3.266-2.866a8.741 8.741 0 0 0 1.444-3.935h-4.432c-.198 1.169-.772 2.08-1.714 2.74l-.009.026ZM180.164 62.667h-8.29v-7.818h-4.433v19.616h4.433V66.54h8.29v7.924h4.459V54.85h-4.459v7.818ZM193.356 66.317h7.455v-3.65h-7.455v-4.168h7.886v-3.65H189.031v19.616H201.43v-3.66h-8.074v-4.488ZM216.39 63.595c-1.094-.491-2.368-.804-3.813-.928l-1.516-.134c-.897-.072-1.552-.313-1.947-.723s-.592-.884-.592-1.428c0-.446.108-.857.323-1.223.215-.366.547-.651.987-.856.439-.206.987-.313 1.633-.313.682 0 1.256.125 1.713.366.458.241.808.562 1.041.964.233.401.35.848.35 1.33h4.324c0-1.277-.296-2.392-.888-3.347-.592-.955-1.444-1.705-2.557-2.24-1.103-.535-2.44-.803-3.983-.803-1.543 0-2.755.25-3.84.74-1.077.491-1.92 1.196-2.53 2.107-.601.91-.906 2.008-.906 3.275 0 1.74.583 3.132 1.758 4.176 1.166 1.045 2.736 1.66 4.701 1.839l1.49.107c1.202.107 2.081.348 2.619.714.539.366.808.865.808 1.49 0 .5-.144.946-.431 1.33-.287.384-.709.687-1.265.901-.556.215-1.256.322-2.081.322-.915 0-1.669-.134-2.243-.393-.574-.259-1.005-.607-1.283-1.035a2.52 2.52 0 0 1-.422-1.401h-4.324c0 1.276.323 2.4.96 3.373.637.973 1.57 1.75 2.799 2.32 1.22.572 2.727.857 4.513.857 1.677 0 3.113-.259 4.324-.776 1.202-.518 2.135-1.25 2.799-2.205.655-.946.987-2.052.987-3.302s-.314-2.249-.933-3.105c-.619-.848-1.48-1.526-2.584-2.017l.009.018ZM238.006 70.886h-.376l-7.429-16.037h-7.267v19.616h4.109V58.419h.377l7.428 16.046h7.321V54.849h-4.163v16.037ZM250.926 70.806v-4.49h7.456v-3.65h-7.456V58.5h7.886v-3.65h-12.21v19.616h12.399v-3.66h-8.075ZM70.815 36.884h-.484l-4.244-10.379h-5.751v18.473h3.813V30.807l4.297 10.432h3.975l4.325-10.548v14.287h4.118V26.505h-5.85l-4.199 10.38ZM87.048 29.745c.762 0 1.328-.197 1.695-.598.368-.393.548-.902.548-1.508 0-.607-.18-1.134-.548-1.535-.367-.393-.933-.598-1.695-.598-.763 0-1.328.196-1.696.598-.368.392-.547.91-.547 1.535 0 .624.18 1.106.547 1.508.368.392.933.598 1.696.598ZM83.594 31.11v3.017h1.857v10.851h4.091V31.11h-5.948ZM101.419 30.682h-.18c-1.067 0-1.974.232-2.718.705-.745.473-1.301 1.178-1.669 2.124a6.842 6.842 0 0 0-.314 1.142V31.11h-3.257V44.98h4.1v-8.077c0-.776.234-1.401.7-1.874.467-.473 1.086-.705 1.848-.705.763 0 1.337.232 1.768.696.431.464.646 1.071.646 1.812v8.148h4.1v-7.925c0-2.142-.431-3.74-1.283-4.793-.852-1.053-2.099-1.58-3.723-1.58h-.018ZM108.668 31.11v3.017h1.857v10.851h4.1V31.11h-5.957ZM112.13 29.745c.762 0 1.328-.197 1.695-.598.368-.393.548-.902.548-1.508 0-.607-.18-1.134-.548-1.535-.367-.393-.933-.598-1.695-.598-.763 0-1.328.196-1.696.598-.368.392-.547.91-.547 1.535 0 .624.179 1.106.547 1.508.368.392.933.598 1.696.598ZM128.372 36.028h-10.739v3.614h10.739v-3.614ZM141.35 31.637c-1.023-.67-2.288-1-3.777-1-1.14 0-2.153.197-3.042.598a6.522 6.522 0 0 0-2.243 1.607 7.11 7.11 0 0 0-1.372 2.293 7.63 7.63 0 0 0-.467 2.668v.51c0 .892.153 1.766.467 2.623a7.11 7.11 0 0 0 1.39 2.311c.61.696 1.373 1.24 2.279 1.642.906.402 1.956.607 3.14.607 1.185 0 2.207-.205 3.105-.616a6.264 6.264 0 0 0 2.243-1.704 5.761 5.761 0 0 0 1.193-2.481h-3.741c-.171.42-.494.776-.969 1.062-.476.285-1.086.428-1.831.428-.816 0-1.471-.17-1.982-.508-.512-.34-.88-.813-1.122-1.428a4.84 4.84 0 0 1-.278-1.125h10.174V37.76c0-1.267-.269-2.437-.816-3.507a6.72 6.72 0 0 0-2.351-2.606v-.01Zm-6.702 4.167c.251-.615.628-1.08 1.122-1.392.493-.312 1.094-.464 1.803-.464.709 0 1.274.16 1.74.464.467.313.817.759 1.041 1.339.126.312.207.66.269 1.053h-6.262c.063-.366.152-.696.278-1h.009ZM155.333 30.682h-.18c-1.067 0-1.973.232-2.718.705-.745.473-1.301 1.178-1.669 2.124a6.92 6.92 0 0 0-.314 1.142V31.11h-3.257V44.98h4.1v-8.077c0-.776.234-1.401.7-1.874.467-.473 1.086-.705 1.848-.705.763 0 1.337.232 1.768.696.431.464.646 1.071.646 1.812v8.148h4.1v-7.925c0-2.142-.431-3.74-1.283-4.793-.852-1.053-2.099-1.58-3.723-1.58h-.018ZM168.024 27.371h-3.795v3.748h-2.135v2.99h2.126v5.462c-.009 1.4.189 2.507.601 3.328.404.821 1.041 1.401 1.911 1.758.862.357 2.001.536 3.41.536h1.955v-3.445h-2.063c-.646 0-1.14-.17-1.489-.517-.35-.349-.521-.848-.521-1.509V34.1h4.073v-2.99h-4.073v-3.748.009ZM179.257 32.53c-.637.802-1.031 1.864-1.184 3.185V31.11h-3.257V44.98h4.101v-7.06c0-1.133.305-1.99.915-2.579.61-.589 1.471-.883 2.593-.883h1.013V30.94h-.538c-1.597 0-2.808.535-3.652 1.597l.009-.009ZM195.487 31.637c-1.023-.67-2.288-1-3.777-1-1.14 0-2.154.197-3.042.598a6.512 6.512 0 0 0-2.243 1.607 7.112 7.112 0 0 0-1.373 2.293 7.629 7.629 0 0 0-.466 2.668v.51c0 .892.152 1.766.466 2.623a7.113 7.113 0 0 0 1.391 2.311c.61.696 1.373 1.24 2.279 1.642.906.402 1.956.607 3.14.607 1.184 0 2.207-.205 3.104-.616a6.255 6.255 0 0 0 2.243-1.704 5.774 5.774 0 0 0 1.194-2.481h-3.742c-.17.42-.493.776-.969 1.062-.475.285-1.085.428-1.83.428-.816 0-1.48-.17-1.983-.508-.511-.34-.879-.813-1.121-1.428a4.791 4.791 0 0 1-.278-1.125h10.174V37.76c0-1.267-.269-2.437-.817-3.507a6.71 6.71 0 0 0-2.35-2.606v-.01Zm-6.702 4.167c.251-.615.628-1.08 1.121-1.392.494-.312 1.095-.464 1.804-.464.708 0 1.274.16 1.74.464.467.313.817.759 1.041 1.339.125.312.206.66.269 1.053h-6.262c.062-.366.152-.696.278-1h.009ZM214.67 32.725a6.01 6.01 0 0 0-2.036-1.481c-.79-.357-1.669-.535-2.638-.535-1.085 0-2.063.24-2.925.722-.861.482-1.552 1.196-2.063 2.151a6.155 6.155 0 0 0-.431 1.053V31.11h-3.257V50.04h4.1v-6.8a4.817 4.817 0 0 0 1.741 1.552c.843.428 1.785.643 2.835.643s1.92-.179 2.71-.536a5.596 5.596 0 0 0 2.009-1.508 6.844 6.844 0 0 0 1.256-2.276 8.85 8.85 0 0 0 .431-2.793v-.58c0-1.009-.152-1.946-.449-2.794a6.45 6.45 0 0 0-1.3-2.23l.017.008Zm-2.79 7.399a3.369 3.369 0 0 1-1.211 1.419c-.52.339-1.121.508-1.821.508-.574 0-1.14-.134-1.678-.401a3.39 3.39 0 0 1-1.337-1.178c-.35-.518-.52-1.134-.52-1.857v-.937c0-.74.161-1.383.493-1.927a3.395 3.395 0 0 1 1.31-1.232 3.757 3.757 0 0 1 1.732-.42c.691 0 1.301.161 1.821.492.52.33.924.785 1.211 1.365.287.58.431 1.267.431 2.061 0 .795-.144 1.49-.431 2.098v.009ZM240.789 27.371h-3.787v3.748h-2.135v2.99h2.127v5.462c-.009 1.4.188 2.507.601 3.328.403.821 1.04 1.401 1.911 1.758.861.357 2 .536 3.409.536h1.956v-3.445h-2.064c-.646 0-1.139-.17-1.489-.517-.35-.349-.52-.848-.52-1.509V34.1h4.073v-2.99h-4.073v-3.748l-.009.009ZM257.573 37.821c-.951-.758-2.279-1.231-3.993-1.419l-1.094-.098c-.727-.08-1.256-.232-1.579-.428a.987.987 0 0 1-.485-.884c0-.383.188-.723.556-.963.377-.233.871-.358 1.499-.358.78 0 1.381.161 1.794.482.413.322.646.697.7 1.143h3.633c-.053-1.482-.628-2.624-1.731-3.4-1.104-.786-2.557-1.178-4.352-1.178-1.121 0-2.117.17-2.987.508-.87.34-1.561.84-2.046 1.49-.493.661-.735 1.473-.735 2.455 0 1.196.421 2.168 1.256 2.918.843.75 2.099 1.214 3.777 1.383l1.094.125c.898.08 1.535.25 1.893.491.368.241.548.571.548.973 0 .455-.234.803-.7 1.053-.467.24-1.059.366-1.768.366-.933 0-1.632-.17-2.099-.518-.467-.348-.736-.74-.798-1.178h-3.616c.072 1.464.664 2.615 1.785 3.427 1.122.821 2.674 1.232 4.657 1.232 1.256 0 2.35-.188 3.283-.554.933-.375 1.651-.901 2.163-1.58.511-.686.762-1.49.762-2.418 0-1.285-.475-2.302-1.426-3.06l.009-.01ZM231.674 32.761a7.062 7.062 0 0 0-2.405-1.553c-.942-.383-2.01-.57-3.221-.57-1.211 0-2.234.187-3.176.57-.951.384-1.758.902-2.431 1.553a6.773 6.773 0 0 0-1.543 2.294 7.115 7.115 0 0 0-.539 2.748v.58c0 .947.171 1.848.512 2.696a6.841 6.841 0 0 0 1.498 2.275c.664.67 1.462 1.187 2.414 1.571.951.384 2.036.571 3.256.571 1.22 0 2.333-.187 3.284-.571.951-.384 1.75-.901 2.404-1.57a6.91 6.91 0 0 0 1.49-2.276c.341-.848.511-1.75.511-2.696v-.58c0-.963-.179-1.874-.538-2.748a6.948 6.948 0 0 0-1.525-2.294h.009Zm-2.441 7.363a3.211 3.211 0 0 1-1.193 1.419c-.529.339-1.184.508-1.983.508-.798 0-1.417-.17-1.956-.508a3.101 3.101 0 0 1-1.22-1.42c-.269-.606-.404-1.284-.404-2.025 0-.794.144-1.49.422-2.088a3.29 3.29 0 0 1 1.238-1.42c.548-.347 1.185-.517 1.938-.517.754 0 1.409.17 1.947.518s.942.82 1.22 1.419c.278.598.422 1.294.422 2.088 0 .74-.135 1.419-.404 2.026h-.027ZM226.073 27.076l2.476 2.357h3.266l-3.858-5.034h-3.813l-3.867 5.034h3.239l2.557-2.357Z" fill="#FAF6F1"/></g><defs><clipPath id="a"><path fill="#fff" d="M0 0h259v75H0z"/></clipPath></defs></svg>